# xmcd CD Database Entry
#
# Track frame offsets:
# 150
# 18825
# 30610
# 49644
# 64181
# 73122
# 82709
# 93450
# 106543
# 117955
# 126530
# 137629
# 146365
# 161421
# 178435
# 191943
# 207270
# 216324
# 230071
# 244100
#
# Disc length: 3429 seconds
#
# Revision: 2
# Processed by: cddbd v1.4PL0 Copyright (c) Steve Scherf et al.
# Submitted via: tcd 2.0b
#
DISCID=220d6314
DTITLE=Rod McKuen - Greatest Hits Vol 3
DYEAR=1900
DGENRE=
TTITLE0=Without a Worry in the World
TTITLE1=Fields of Wonder
TTITLE2=A Cat Named Sloopy
TTITLE3=The Single Man
TTITLE4=Champion Charlie Brown
TTITLE5=Capri in July
TTITLE6=The Loner
TTITLE7=Soldiers Who Want to be Heroes
TTITLE8=I Think of You
TTITLE9=Pushing the Clouds Away
TTITLE10=Pastures Green
TTITLE11=Everybody's Rich But Ys
TTITLE12=Bend Down and Touch Me
TTITLE13=I'm Not Afraid
TTITLE14=Rock Gently
TTITLE15=Solitude's My Home
TTITLE16=Sweet Emily
TTITLE17=About the Time
TTITLE18=Baby It's Cold Outside
TTITLE19=Amor
EXTD=
EXTT0=
EXTT1=
EXTT2=
EXTT3=
EXTT4=
EXTT5=
EXTT6=
EXTT7=
EXTT8=
EXTT9=
EXTT10=
EXTT11=
EXTT12=
EXTT13=
EXTT14=
EXTT15=
EXTT16=
EXTT17=
EXTT18=
EXTT19=
PLAYORDER=
